<svg xmlns="http://www.w3.org/2000/svg" viewBox="0 0 400 400">
  <rect width="400" height="400" rx="20" fill="#a3f5b4"/>
  <g transform="translate(200,145)" fill="none" stroke="#fff" stroke-width="5" stroke-linecap="round" stroke-linejoin="round" opacity="0.7">
    <path d="M0,-70 Q10,-30 40,-40 Q20,-15 30,15 Q5,5 0,30 Q-5,5 -30,15 Q-20,-15 -40,-40 Q-10,-30 0,-70Z" fill="#a3f5b4" fill-opacity="0.3"/>
    <circle cx="0" cy="5" r="18" fill="#a3f5b4" fill-opacity="0.3"/>
    <circle cx="0" cy="5" r="8"/>
    <circle cx="-35" cy="45" r="6"/>
    <circle cx="35" cy="45" r="6"/>
    <circle cx="45" cy="-15" r="5"/>
    <circle cx="-45" cy="-15" r="5"/>
    <path d="M0,30 L0,60" stroke-width="4"/>
    <path d="M-15,55 L0,60 L15,55" stroke-width="3"/>
  </g>
  <text x="200" y="310" font-family="system-ui, sans-serif" font-size="22" fill="#fff" text-anchor="middle" font-weight="500" opacity="0.9">Decoración</text>
</svg>