<svg xmlns="http://www.w3.org/2000/svg" viewBox="0 0 400 400">
  <rect width="400" height="400" rx="20" fill="#c9a3f5"/>
  <g transform="translate(200,150)" fill="none" stroke="#fff" stroke-width="5" stroke-linecap="round" stroke-linejoin="round" opacity="0.7">
    <path d="M-80,-40 Q-60,-70 -30,-50 Q0,-30 10,-55 Q20,-80 40,-60 Q60,-40 80,-30" stroke-width="4"/>
    <path d="M-80,-30 Q-50,-10 -10,-25 Q20,-40 50,-20 Q70,-10 80,-5" stroke-width="4"/>
    <path d="M-80,-20 Q-40,5 10,-10 Q40,-20 70,5 Q75,10 80,15" stroke-width="4"/>
    <path d="M-80,40 L-80,100" stroke-width="5"/>
    <path d="M80,40 L80,100" stroke-width="5"/>
    <path d="M-80,100 L80,100" stroke-width="5"/>
    <line x1="-80" y1="55" x2="80" y2="55" stroke-width="3" stroke-dasharray="8,6"/>
  </g>
  <text x="200" y="310" font-family="system-ui, sans-serif" font-size="22" fill="#fff" text-anchor="middle" font-weight="500" opacity="0.9">Mantelería</text>
</svg>